# xmcd CD database file
#
# Track frame offsets:
#	150
#	19848
#	40062
#	56469
#	71923
#	91058
#	105171
#	117438
#	135430
#	152492
#	166424
#
# Disc length: 2406 seconds
#
# Revision: 0
# Processed by: cddbd v1.4PL0 Copyright (c) Steve Scherf et al.
# Submitted via: CDex 1.40Beta8
#
DISCID=8109640b
DTITLE=Chris Wall - Tainted Angel
DYEAR=1998
DGENRE=Country
TTITLE0=Turns To Tears
TTITLE1=Three Across
TTITLE2=God's Own Jukebox
TTITLE3=Tainted Angel
TTITLE4=I Never Got Over Losing You
TTITLE5=The Empty Seat Beside Me
TTITLE6=Big Blue Teardrops
TTITLE7=Waltz to Cheyenne
TTITLE8=Half of What Killed Elvis
TTITLE9=No Sweat
TTITLE10=Dylan Montana's Last Ride
EXTD=YEAR: 1998 ID3G: 2
EXTT0=
EXTT1=
EXTT2=
EXTT3=
EXTT4=
EXTT5=
EXTT6=
EXTT7=
EXTT8=
EXTT9=
EXTT10=
PLAYORDER=
